<svg width="32" height="32" viewBox="0 0 32 32" fill="none" xmlns="http://www.w3.org/2000/svg">
  <rect width="32" height="32" rx="4" fill="#6366f1"/>
  <svg x="6" y="6" width="20" height="20" viewBox="0 0 24 24" fill="none" stroke="white" stroke-width="2" stroke-linecap="round" stroke-linejoin="round">
    <path d="M7.5 4.27c.3.07.6.14.9.2.3.07.6.14.9.2 1.69.38 3.22 1.16 4.27 2.27 1.06 1.1 1.89 2.63 2.27 4.27.07.3.14.6.2.9.07.3.14.6.2.9"/>
    <path d="M3 12a9 9 0 1 0 18 0 9 9 0 1 0-18 0"/>
    <circle cx="12" cy="12" r="1"/>
  </svg>
</svg>
